# xmcd
#
# Track frame offsets:
#       150
#       13978
#       30856
#       47748
#       67484
#       81921
#       96528
#       114640
#       133136
#       148525
#
# Disc length: 2216 seconds
#
# Revision: 2
# Processed by: cddbd v1.5.1PL0 Copyright (c) Steve Scherf et al.
# Submitted via: MusiCat 1.1
#
DISCID=9408a60a
DTITLE=Champion Jack Dupree - Blues From The Gutter
DYEAR=1900
DGENRE=
TTITLE0=Strollin'
TTITLE1=T B Blues
TTITLE2=Cant Kick The Habit
TTITLE3=Evil Woman
TTITLE4=Nasty Boogie
TTITLE5=Junkers Blues
TTITLE6=Bad Blood
TTITLE7=Goin' Down Slow
TTITLE8=Frankie and Johnny
TTITLE9=Stack-O-Lee
EXTD=\n\n
EXTT0=
EXTT1=
EXTT2=
EXTT3=
EXTT4=
EXTT5=
EXTT6=
EXTT7=
EXTT8=
EXTT9=
PLAYORDER=
